# xmcd
#
# Track frame offsets: 
#        150
#        17515
#        45505
#        68920
#        92897
#        117695
#        145287
#        163070
#
# Disc length: 2558 seconds
#
# Revision: 0
# Processed by: cddbd v1.5.2PL0 Copyright (c) Steve Scherf et al.
# Submitted via: ExactAudioCopy v0.99pb5
#
DISCID=6d09fc08
DTITLE=Paul Plumeri Blues Band - Live In Seattle
DYEAR=2002
DGENRE=Blues
TTITLE0=Let The Good Times Roll/Everyday I Have The Blues Medley
TTITLE1=T-Bone Shuffle
TTITLE2=Philene
TTITLE3=Get On With It
TTITLE4=Like A Bullet
TTITLE5=Cross-Cut Saw
TTITLE6=I Need Your Money
TTITLE7=Hey Joe
EXTD=
EXTT0=
EXTT1=
EXTT2=
EXTT3=
EXTT4=
EXTT5=
EXTT6=
EXTT7=
PLAYORDER=
